<svg width="45" height="45" viewBox="0 0 45 45" fill="none" xmlns="http://www.w3.org/2000/svg">
<path d="M14.5782 28.9697H18.5782V24.9697H14.5782V28.9697ZM14.5782 34.9697H18.5782V30.9697H14.5782V34.9697ZM14.5782 22.9697H18.5782V18.9697H14.5782V22.9697ZM20.5782 40.9697H24.5782V36.9697H20.5782V40.9697ZM14.5782 40.9697H18.5782V36.9697H14.5782V40.9697ZM20.5782 34.9697H24.5782V30.9697H20.5782V34.9697ZM8.57825 34.9697H12.5782V30.9697H8.57825V34.9697ZM8.57825 40.9697H12.5782V36.9697H8.57825V40.9697ZM8.57825 22.9697H12.5782V18.9697H8.57825V22.9697ZM8.57825 28.9697H12.5782V24.9697H8.57825V28.9697ZM26.5782 40.9697H30.5782V36.9697H26.5782V40.9697ZM8.57825 16.9697H36.5782V4.96973H8.57825V16.9697ZM10.5782 6.96971H34.5782V14.9697H10.5782V6.96971ZM32.5782 22.9697H36.5782V18.9697H32.5782V22.9697ZM36.5782 0.969727H8.57825C7.51738 0.969727 6.49996 1.39115 5.74982 2.1413C4.99967 2.89144 4.57825 3.90886 4.57825 4.96973V40.9697C4.57825 42.0306 4.99967 43.048 5.74982 43.7981C6.49996 44.5483 7.51738 44.9697 8.57825 44.9697H36.5782C37.6391 44.9697 38.6565 44.5483 39.4067 43.7981C40.1568 43.048 40.5782 42.0306 40.5782 40.9697V4.96973C40.5782 3.90886 40.1568 2.89144 39.4067 2.1413C38.6565 1.39115 37.6391 0.969727 36.5782 0.969727ZM38.5782 40.9697C38.5782 41.5001 38.3675 42.0089 37.9925 42.3839C37.6174 42.759 37.1087 42.9697 36.5782 42.9697H8.57825C8.04781 42.9697 7.5391 42.759 7.16403 42.3839C6.78896 42.0089 6.57825 41.5001 6.57825 40.9697V4.96973C6.57825 4.43929 6.78896 3.93058 7.16403 3.55551C7.5391 3.18044 8.04781 2.96973 8.57825 2.96973H36.5782C37.1087 2.96973 37.6174 3.18044 37.9925 3.55551C38.3675 3.93058 38.5782 4.43929 38.5782 4.96973V40.9697ZM20.5782 28.9697H24.5782V24.9697H20.5782V28.9697ZM32.5782 40.9697H36.5782V24.9697H32.5782V40.9697ZM26.5782 34.9697H30.5782V30.9697H26.5782V34.9697ZM26.5782 22.9697H30.5782V18.9697H26.5782V22.9697ZM20.5782 22.9697H24.5782V18.9697H20.5782V22.9697ZM26.5782 28.9697H30.5782V24.9697H26.5782V28.9697Z" fill="#F99D36"/>
</svg>
