<svg width="48" height="42" viewBox="0 0 48 42" fill="none" xmlns="http://www.w3.org/2000/svg">
<path d="M46.7086 39.8023H45.6249V11.6273H46.7086C46.996 11.6273 47.2716 11.5131 47.4748 11.3098C47.678 11.1066 47.7922 10.831 47.7922 10.5436C47.7922 10.2562 47.678 9.98055 47.4748 9.77732C47.2716 9.5741 46.996 9.45994 46.7086 9.45994H45.6249V5.12532C45.6249 4.55051 45.3966 3.99925 44.9901 3.5928C44.5837 3.18635 44.0324 2.95801 43.4576 2.95801H4.44598C3.87117 2.95801 3.31994 3.18635 2.91349 3.5928C2.50704 3.99925 2.27867 4.55051 2.27867 5.12532V9.45994H1.19501C0.907611 9.45994 0.631995 9.5741 0.42877 9.77732C0.225545 9.98055 0.111359 10.2562 0.111359 10.5436C0.111359 10.831 0.225545 11.1066 0.42877 11.3098C0.631995 11.5131 0.907611 11.6273 1.19501 11.6273H2.27867V39.8023H1.19501C0.907611 39.8023 0.631995 39.9165 0.42877 40.1197C0.225545 40.3229 0.111359 40.5986 0.111359 40.886C0.111359 41.1734 0.225545 41.449 0.42877 41.6522C0.631995 41.8554 0.907611 41.9696 1.19501 41.9696H46.7086C46.996 41.9696 47.2716 41.8554 47.4748 41.6522C47.678 41.449 47.7922 41.1734 47.7922 40.886C47.7922 40.5986 47.678 40.3229 47.4748 40.1197C47.2716 39.9165 46.996 39.8023 46.7086 39.8023ZM26.1191 39.8023H21.7845V28.9657H26.1191V39.8023ZM43.4576 39.8023H28.2864V27.8821C28.2864 27.5947 28.1722 27.319 27.969 27.1158C27.7658 26.9126 27.4902 26.7984 27.2028 26.7984H20.7008C20.4134 26.7984 20.1378 26.9126 19.9346 27.1158C19.7313 27.319 19.6172 27.5947 19.6172 27.8821V39.8023H4.44598V16.6337C6.08325 16.1644 7.80267 16.0551 9.4862 16.3133C11.1697 16.5714 12.7774 17.1909 14.1989 18.1292C14.6057 17.668 15.1059 17.2986 15.6664 17.0455C16.2269 16.7925 16.8349 16.6617 17.4499 16.6617C18.0648 16.6617 18.6728 16.7925 19.2333 17.0455C19.7938 17.2986 20.294 17.668 20.7008 18.1292C21.1076 17.668 21.6078 17.2986 22.1684 17.0455C22.7289 16.7925 23.3368 16.6617 23.9518 16.6617C24.5668 16.6617 25.1747 16.7925 25.7352 17.0455C26.2957 17.2986 26.796 17.668 27.2028 18.1292C27.6095 17.668 28.1098 17.2986 28.6703 17.0455C29.2308 16.7925 29.8387 16.6617 30.4537 16.6617C31.0687 16.6617 31.6766 16.7925 32.2371 17.0455C32.7977 17.2986 33.2979 17.668 33.7047 18.1292C34.1115 17.668 34.6117 17.2986 35.1722 17.0455C35.7327 16.7925 36.3407 16.6617 36.9557 16.6617C37.5706 16.6617 38.1786 16.7925 38.7391 17.0455C39.2996 17.2986 39.7999 17.668 40.2066 18.1292C40.8237 18.1257 41.433 17.9905 41.9936 17.7326C42.5543 17.4747 43.0534 17.1001 43.4576 16.6337V39.8023ZM5.52964 13.7946V11.6273H9.86426V13.7946C9.86426 14.3694 9.63595 14.9206 9.2295 15.3271C8.82305 15.7335 8.27176 15.9619 7.69695 15.9619C7.12214 15.9619 6.57091 15.7335 6.16446 15.3271C5.75801 14.9206 5.52964 14.3694 5.52964 13.7946ZM12.0316 13.7946V11.6273H16.3662V13.7946C16.3662 14.3694 16.1379 14.9206 15.7314 15.3271C15.325 15.7335 14.7737 15.9619 14.1989 15.9619C13.6241 15.9619 13.0728 15.7335 12.6664 15.3271C12.2599 14.9206 12.0316 14.3694 12.0316 13.7946ZM18.5335 13.7946V11.6273H22.8681V13.7946C22.8681 14.3694 22.6398 14.9206 22.2334 15.3271C21.8269 15.7335 21.2756 15.9619 20.7008 15.9619C20.126 15.9619 19.5748 15.7335 19.1683 15.3271C18.7619 14.9206 18.5335 14.3694 18.5335 13.7946ZM25.0354 13.7946V11.6273H29.3701V13.7946C29.3701 14.3694 29.1418 14.9206 28.7353 15.3271C28.3289 15.7335 27.7776 15.9619 27.2028 15.9619C26.6279 15.9619 26.0767 15.7335 25.6703 15.3271C25.2638 14.9206 25.0354 14.3694 25.0354 13.7946ZM31.5374 13.7946V11.6273H35.872V13.7946C35.872 14.3694 35.6437 14.9206 35.2372 15.3271C34.8308 15.7335 34.2795 15.9619 33.7047 15.9619C33.1299 15.9619 32.5786 15.7335 32.1722 15.3271C31.7657 14.9206 31.5374 14.3694 31.5374 13.7946ZM38.0393 13.7946V11.6273H42.3739V13.7946C42.3739 14.3694 42.1456 14.9206 41.7392 15.3271C41.3327 15.7335 40.7814 15.9619 40.2066 15.9619C39.6318 15.9619 39.0806 15.7335 38.6741 15.3271C38.2677 14.9206 38.0393 14.3694 38.0393 13.7946ZM43.4576 9.45994H4.44598V5.12532H43.4576V9.45994ZM16.3662 26.7984H9.86426C9.57686 26.7984 9.30124 26.9126 9.09802 27.1158C8.89479 27.319 8.7806 27.5947 8.7806 27.8821V34.384C8.7806 34.6714 8.89479 34.947 9.09802 35.1503C9.30124 35.3535 9.57686 35.4677 9.86426 35.4677H16.3662C16.6536 35.4677 16.9292 35.3535 17.1324 35.1503C17.3357 34.947 17.4499 34.6714 17.4499 34.384V27.8821C17.4499 27.5947 17.3357 27.319 17.1324 27.1158C16.9292 26.9126 16.6536 26.7984 16.3662 26.7984ZM15.2825 33.3004H10.9479V28.9657H15.2825V33.3004ZM38.0393 26.7984H31.5374C31.25 26.7984 30.9744 26.9126 30.7711 27.1158C30.5679 27.319 30.4537 27.5947 30.4537 27.8821V34.384C30.4537 34.6714 30.5679 34.947 30.7711 35.1503C30.9744 35.3535 31.25 35.4677 31.5374 35.4677H38.0393C38.3267 35.4677 38.6023 35.3535 38.8056 35.1503C39.0088 34.947 39.123 34.6714 39.123 34.384V27.8821C39.123 27.5947 39.0088 27.319 38.8056 27.1158C38.6023 26.9126 38.3267 26.7984 38.0393 26.7984ZM36.9557 33.3004H32.621V28.9657H36.9557V33.3004Z" fill="#4A90E2"/>
</svg>
