<svg width="44" height="45" viewBox="0 0 44 45" fill="none" xmlns="http://www.w3.org/2000/svg">
<path d="M11 19.347C10.4067 19.347 9.82666 19.5229 9.33331 19.8526C8.83996 20.1822 8.45545 20.6508 8.22839 21.199C8.00133 21.7471 7.94192 22.3504 8.05768 22.9323C8.17343 23.5142 8.45916 24.0488 8.87872 24.4683C9.29828 24.8879 9.83279 25.1736 10.4147 25.2894C10.9967 25.4051 11.5999 25.3457 12.1481 25.1186C12.6962 24.8916 13.1648 24.5071 13.4944 24.0137C13.8241 23.5204 14 22.9404 14 22.347C14 21.5514 13.6839 20.7883 13.1213 20.2257C12.5587 19.6631 11.7956 19.347 11 19.347ZM11 23.347C10.8022 23.347 10.6089 23.2883 10.4445 23.1785C10.28 23.0686 10.1519 22.9125 10.0762 22.7297C10.0005 22.547 9.98064 22.3459 10.0192 22.1519C10.0578 21.9579 10.1531 21.7797 10.2929 21.6399C10.4328 21.5 10.6109 21.4048 10.8049 21.3662C10.9989 21.3276 11.2 21.3475 11.3827 21.4231C11.5654 21.4988 11.7216 21.627 11.8315 21.7914C11.9414 21.9559 12 22.1493 12 22.347C12 22.6123 11.8947 22.8666 11.7072 23.0541C11.5196 23.2417 11.2652 23.347 11 23.347ZM22 19.347C21.4067 19.347 20.8267 19.5229 20.3333 19.8526C19.84 20.1822 19.4555 20.6508 19.2284 21.199C19.0013 21.7471 18.9419 22.3504 19.0577 22.9323C19.1734 23.5142 19.4592 24.0488 19.8787 24.4683C20.2983 24.8879 20.8328 25.1736 21.4147 25.2894C21.9967 25.4051 22.5999 25.3457 23.1481 25.1186C23.6962 24.8916 24.1648 24.5071 24.4944 24.0137C24.8241 23.5204 25 22.9404 25 22.347C25 21.5514 24.6839 20.7883 24.1213 20.2257C23.5587 19.6631 22.7956 19.347 22 19.347ZM22 23.347C21.8022 23.347 21.6089 23.2883 21.4445 23.1785C21.28 23.0686 21.1519 22.9125 21.0762 22.7297C21.0005 22.547 20.9806 22.3459 21.0192 22.1519C21.0578 21.9579 21.1531 21.7797 21.2929 21.6399C21.4328 21.5 21.6109 21.4048 21.8049 21.3662C21.9989 21.3276 22.2 21.3475 22.3827 21.4231C22.5654 21.4988 22.7216 21.627 22.8315 21.7914C22.9414 21.9559 23 22.1493 23 22.347C23 22.6123 22.8947 22.8666 22.7072 23.0541C22.5196 23.2417 22.2652 23.347 22 23.347ZM22 0.347038C17.6488 0.347038 13.3953 1.63729 9.77746 4.05468C6.15958 6.47207 3.33981 9.908 1.67468 13.928C0.00955212 17.9479 -0.426148 22.3714 0.422727 26.639C1.2716 30.9066 3.36691 34.8266 6.44366 37.9034C9.52042 40.9801 13.4405 43.0754 17.7081 43.9243C21.9756 44.7732 26.3991 44.3375 30.4191 42.6724C34.439 41.0072 37.875 38.1875 40.2924 34.5696C42.7097 30.9517 44 26.6982 44 22.347C44 16.5123 41.6822 10.9164 37.5564 6.79064C33.4306 2.66484 27.8348 0.347038 22 0.347038ZM22 42.347C18.0444 42.347 14.1776 41.1741 10.8886 38.9764C7.59962 36.7788 5.03621 33.6552 3.52246 30.0007C2.00871 26.3461 1.61263 22.3248 2.38434 18.4452C3.15604 14.5656 5.06086 11.0019 7.85791 8.20489C10.655 5.40784 14.2186 3.50302 18.0982 2.73132C21.9778 1.95961 25.9992 2.35569 29.6537 3.86944C33.3082 5.38319 36.4318 7.9466 38.6294 11.2356C40.827 14.5246 42 18.3914 42 22.347C42 27.6514 39.8929 32.7384 36.1421 36.4891C32.3914 40.2399 27.3043 42.347 22 42.347ZM33 19.347C32.4067 19.347 31.8267 19.5229 31.3333 19.8526C30.84 20.1822 30.4555 20.6508 30.2284 21.199C30.0013 21.7471 29.9419 22.3504 30.0577 22.9323C30.1734 23.5142 30.4592 24.0488 30.8787 24.4683C31.2983 24.8879 31.8328 25.1736 32.4147 25.2894C32.9967 25.4051 33.5999 25.3457 34.1481 25.1186C34.6962 24.8916 35.1648 24.5071 35.4944 24.0137C35.8241 23.5204 36 22.9404 36 22.347C36 21.5514 35.6839 20.7883 35.1213 20.2257C34.5587 19.6631 33.7956 19.347 33 19.347ZM33 23.347C32.8022 23.347 32.6089 23.2883 32.4445 23.1785C32.28 23.0686 32.1519 22.9125 32.0762 22.7297C32.0005 22.547 31.9806 22.3459 32.0192 22.1519C32.0578 21.9579 32.1531 21.7797 32.2929 21.6399C32.4328 21.5 32.6109 21.4048 32.8049 21.3662C32.9989 21.3276 33.2 21.3475 33.3827 21.4231C33.5654 21.4988 33.7216 21.627 33.8315 21.7914C33.9414 21.9559 34 22.1493 34 22.347C34 22.6123 33.8947 22.8666 33.7071 23.0541C33.5196 23.2417 33.2652 23.347 33 23.347Z" fill="#999999"/>
</svg>
