<svg width="45" height="45" viewBox="0 0 45 45" fill="none" xmlns="http://www.w3.org/2000/svg">
<mask id="mask0" mask-type="alpha" maskUnits="userSpaceOnUse" x="0" y="1" width="45" height="41">
<path fill-rule="evenodd" clip-rule="evenodd" d="M0.484558 1.46924H44.4843V41.4792H0.484558V1.46924Z" fill="white"/>
</mask>
<g mask="url(#mask0)">
<path fill-rule="evenodd" clip-rule="evenodd" d="M2.55356 39.4792C3.04656 36.0612 6.08956 34.6682 9.02256 33.6272C10.9886 33.1212 14.5086 31.0532 14.5086 26.6002C14.5086 22.7902 12.9366 20.9322 12.0916 19.9342C11.9866 19.8102 11.8896 19.7012 11.8146 19.5952C11.7906 19.5642 11.7666 19.5342 11.7416 19.5012C11.6706 19.3672 11.2746 18.4672 11.7956 16.3072C11.9006 15.8752 11.8576 15.4182 11.6736 15.0132C11.1776 13.9182 9.86056 11.0102 10.7406 8.85524C11.9316 5.93524 12.9916 5.35724 14.9166 4.51024C15.0126 4.46824 15.1046 4.41824 15.1926 4.36224C15.6766 4.05024 17.2546 3.47024 18.8776 3.47024C19.7696 3.47024 20.5286 3.64024 21.1346 3.97624C21.8546 4.37624 22.5346 5.11524 23.5196 7.42024C24.9106 10.6832 24.5626 13.4672 23.5986 14.7812C23.2496 15.2542 23.1286 15.8602 23.2666 16.4322C23.7516 18.4432 23.3946 19.2552 23.3196 19.3972C23.2606 19.4602 23.2036 19.5262 23.1546 19.5952C23.0776 19.7012 22.9826 19.8102 22.8766 19.9342C22.0326 20.9322 20.4596 22.7902 20.4596 26.6002C20.4596 31.0542 23.9816 33.1212 25.9476 33.6272C28.8516 34.6542 31.9196 36.0432 32.4136 39.4792H2.55356ZM26.5216 31.7102C26.5216 31.7102 22.4596 30.7602 22.4596 26.6002C22.4596 22.9462 24.1286 21.6602 24.7736 20.7702C24.7736 20.7702 26.0966 19.6332 25.2106 15.9632C26.6876 13.9542 26.9646 10.3992 25.3596 6.63524C24.3516 4.27324 23.4606 2.97924 22.1046 2.22724C21.1076 1.67424 19.9776 1.46924 18.8776 1.46924C16.8276 1.46924 14.8866 2.18124 14.1116 2.67924C11.8436 3.67724 10.3186 4.59624 8.88856 8.09924C7.72856 10.9422 9.12456 14.2342 9.85156 15.8382C8.96556 19.5082 10.1956 20.7702 10.1956 20.7702C10.8396 21.6602 12.5086 22.9462 12.5086 26.6002C12.5086 30.7602 8.44756 31.7102 8.44756 31.7102C5.86656 32.6202 0.484558 34.4792 0.484558 40.4792C0.484558 40.4792 0.484558 41.4792 1.48456 41.4792H33.4846C34.4846 41.4792 34.4846 40.4792 34.4846 40.4792C34.4846 34.4792 29.1016 32.6202 26.5216 31.7102ZM37.2236 30.6872C37.2236 30.6872 33.5206 29.8332 33.5206 26.0872C33.5206 22.7982 35.2926 21.6402 35.8796 20.8412C35.8796 20.8412 37.0866 19.8172 36.2796 16.5142C37.6246 14.7062 37.9406 11.5062 36.4766 8.12024C35.5586 5.99424 34.4336 4.83024 33.1976 4.15224C32.2866 3.65424 31.2576 3.47124 30.2546 3.47124C28.7596 3.47124 27.3376 3.87924 26.4626 4.27324C26.7176 4.76824 26.9606 5.29324 27.1996 5.85124C27.2336 5.93124 27.2566 6.01224 27.2886 6.09224C27.8556 5.84024 28.9906 5.47024 30.2546 5.47024C31.0416 5.47024 31.7086 5.61824 32.2376 5.90824C32.8586 6.24824 33.7836 6.92824 34.6406 8.91424C35.8596 11.7322 35.5346 14.1642 34.6746 15.3212C34.3196 15.7992 34.1956 16.4122 34.3366 16.9912C34.7416 18.6452 34.4806 19.3402 34.4136 19.4792C34.3626 19.5372 34.3136 19.5952 34.2676 19.6592C34.2276 19.7112 34.0886 19.8612 33.9876 19.9692C33.1246 20.8962 31.5206 22.6212 31.5206 26.0872C31.5206 30.2172 34.8116 32.1332 36.6556 32.6062C39.2906 33.5262 41.8596 34.6732 42.3866 37.4782H36.0596C36.2406 38.0952 36.3666 38.7592 36.4286 39.4782H43.5726C44.4846 39.4782 44.4846 38.5802 44.4846 38.5802C44.4846 33.1782 39.5756 31.5042 37.2236 30.6872Z" fill="#D59AF9"/>
</g>
</svg>
