<svg width="60" height="45" viewBox="0 0 60 45" fill="none" xmlns="http://www.w3.org/2000/svg">
<path d="M15.7904 13.275C15.7904 11.8648 16.9336 10.7216 18.3438 10.7216H41.6884C43.0986 10.7216 44.2418 11.8648 44.2418 13.275V37.5339C44.2418 38.7552 43.3834 39.7782 42.2363 40.0286C42.1703 40.043 42.0989 40.0578 42.0233 40.0734C41.6226 40.1564 41.1035 40.2639 40.6308 40.4718C36.5597 42.2621 33.3772 43.1553 30.183 43.1734C26.989 43.1914 23.6917 42.3347 19.3937 40.4652C18.9242 40.261 18.409 40.1552 18.0112 40.0736C17.9365 40.0582 17.866 40.0437 17.8007 40.0296C16.6512 39.7811 15.7904 38.7569 15.7904 37.5339V13.275Z" fill="white" stroke="#00B19D" stroke-width="1.84267"/>
<path d="M29.449 1.7306C29.8101 1.56991 30.2224 1.56991 30.5835 1.7306L54.1667 12.2254C55.2706 12.7166 55.2706 14.2834 54.1667 14.7747L30.5835 25.2694C30.2224 25.4301 29.8101 25.4301 29.449 25.2694L5.86578 14.7747C4.76187 14.2834 4.76187 12.7166 5.86578 12.2254L29.449 1.7306Z" fill="white" stroke="#00B19D" stroke-width="1.84267"/>
<path d="M54.6242 14.2422C54.6242 14.2422 53.2609 18.9048 53.251 21.97C53.2408 25.0923 54.6242 29.8464 54.6242 29.8464M54.6242 29.8464C53.3362 30.8652 51.842 33.1844 52.0353 35.1952C52.2379 37.3038 53.4907 37.8629 53.5809 38.0506C57.8916 36.1418 57.0354 31.9055 54.6242 29.8464Z" stroke="#00B19D" stroke-width="1.84267"/>
</svg>
