<svg xmlns="http://www.w3.org/2000/svg" width="48" height="48" viewBox="0 0 48 48">
<path fill="#00B19D" d="M35.9023679,23.3682548 C35.4727971,22.9387646 34.9515266,22.7241807 34.3377505,22.7241807 L33.6019766,22.7241807 L33.6019766,18.306717 C33.6019766,15.4846522 32.5899752,13.0615378 30.5653278,11.036971 C28.5408416,9.01232368 26.117969,8 23.2955013,8 C20.4731142,8 18.0497581,9.01232368 16.0254331,11.0368905 C14.0007857,13.0615378 12.9887843,15.4845716 12.9887843,18.306717 L12.9887843,22.7241807 L12.2526881,22.7241807 C11.6393955,22.7241807 11.1178026,22.9387646 10.6883124,23.3682548 C10.2588222,23.7974227 10.0441577,24.3190155 10.0441577,24.9328723 L10.0441577,38.184377 C10.0441577,38.7976697 10.2589028,39.3194237 10.6883124,39.7489945 C11.1178026,40.1780818 11.6393955,40.3929074 12.2526881,40.3929074 L34.3383145,40.3929074 C34.9520906,40.3929074 35.4732806,40.1783235 35.902932,39.7489945 C36.3320193,39.3194237 36.5470867,38.7976697 36.5470867,38.184377 L36.5470867,24.9326305 C36.547409,24.3192573 36.3320193,23.797745 35.9023679,23.3682548 Z M29.1849963,22.7241807 L17.4060063,22.7241807 L17.4060063,18.306717 C17.4060063,16.6810201 17.9812653,15.2928723 19.1315416,14.1427572 C20.281979,12.992481 21.669885,12.4174637 23.2957431,12.4174637 C24.9217623,12.4174637 26.309346,12.9924004 27.459864,14.1427572 C28.6098179,15.2927917 29.1849963,16.6810201 29.1849963,18.306717 L29.1849963,22.7241807 Z" />
</svg>