<svg xmlns="http://www.w3.org/2000/svg" width="48" height="48" viewBox="0 0 48 48">
<path fill="#00B19D" d="M39.5157277,26.3264881 C38.4936631,25.05455 37.1969805,24.2362589 35.6272785,23.8712952 C36.126642,23.1044749 36.3756204,22.2647643 36.3756204,21.3521632 C36.3756204,20.0620663 35.91916,18.9607813 35.0067507,18.0479244 C34.0941496,17.1353873 32.9928006,16.6789269 31.7027038,16.6789269 C30.5344746,16.6789269 29.5242387,17.0562308 28.6726354,17.8108387 C27.9549203,16.0826959 26.8136094,14.6831355 25.2500456,13.6121575 C23.686098,12.5414353 21.9426099,12.0056906 20.0197089,12.0056906 C17.4398349,12.0056906 15.2369451,12.9186753 13.4114232,14.7441972 C11.5857735,16.5692715 10.6732363,18.7722892 10.6732363,21.352355 C10.6732363,21.5349647 10.6854486,21.7964112 10.7097455,22.137206 C9.2981006,22.7944348 8.16011459,23.7892614 7.29610712,25.1222613 C6.43216358,26.454494 6,27.9243233 6,29.5307903 C6,31.7821458 6.80032425,33.7081158 8.40052516,35.3082528 C10.00079,36.9088373 11.9267601,37.7090337 14.1781795,37.7090337 L34.0399293,37.7090337 C35.974659,37.7090337 37.6266505,37.0239275 38.9959677,35.6552497 C40.3650932,34.2861882 41.0497518,32.6341967 41.0497518,30.6990194 C41.04956,29.0561712 40.538176,27.5980427 39.5157277,26.3264881 Z" />
</svg>