<svg xmlns="http://www.w3.org/2000/svg" width="48" height="48" viewBox="0 0 48 48">
<path fill="#00B19D" d="M31.9685652,8 L18.479477,8 C17.1885154,8 16.1463998,9.04678876 16.1463998,10.3354138 L16.1463998,37.7271652 C16.1463998,39.0146219 17.1885154,40.0602424 18.479477,40.0602424 L31.9685652,40.0602424 C33.2571902,40.0602424 34.3016423,39.0146219 34.3016423,37.7271652 L34.3016423,10.3354138 C34.3016423,9.04678876 33.2571902,8 31.9685652,8 Z M21.8955599,9.41830531 L28.5548188,9.41830531 C28.7230527,9.41830531 28.8597427,9.66948788 28.8597427,9.98025329 C28.8597427,10.2910187 28.7230527,10.5433696 28.5548188,10.5433696 L21.8955599,10.5433696 C21.7261577,10.5433696 21.5918043,10.2910187 21.5918043,9.98025329 C21.5918043,9.66948788 21.7261577,9.41830531 21.8955599,9.41830531 Z M25.2251894,37.7552042 C24.4038808,37.7552042 23.7356183,37.0869417 23.7356183,36.2644648 C23.7356183,35.4419879 24.4038808,34.7760621 25.2251894,34.7760621 C26.0441614,34.7760621 26.7124238,35.4419879 26.7124238,36.2644648 C26.7124238,37.0869417 26.0441614,37.7552042 25.2251894,37.7552042 Z M32.553879,32.6509407 L17.8953315,32.6509407 L17.8953315,11.9406456 L32.553879,11.9406456 L32.553879,32.6509407 Z" />
</svg>