<svg xmlns="http://www.w3.org/2000/svg" width="48" height="48" viewBox="0 0 48 48">
<g fill="#00B19D">
    <path d="M24.0191722,8 C15.1862046,8 8,15.1862046 8,24.0191722 C8,32.8521398 15.1862046,40.0383444 24.0191722,40.0383444 C32.8521398,40.0383444 40.0383444,32.8521398 40.0383444,24.0191722 C40.0383444,15.1862046 32.8521398,8 24.0191722,8 Z M24.0191722,36.6297363 C17.0657699,36.6297363 11.4082784,30.9729043 11.4082784,24.0191722 C11.4082784,17.0654401 17.0657699,11.4086081 24.0191722,11.4086081 C30.9725745,11.4086081 36.630066,17.0654401 36.630066,24.0191722 C36.630066,30.9729043 30.9725745,36.6297363 24.0191722,36.6297363 Z" />
    <path d="M32.3677395,23.5245498 L25.1686748,23.5245498 L25.1686748,14.868657 C25.1686748,14.140243 24.5780956,13.5496638 23.8496816,13.5496638 C23.1212676,13.5496638 22.5306884,14.140243 22.5306884,14.868657 L22.5306884,24.8435429 C22.5306884,25.5719569 23.1212676,26.1625361 23.8496816,26.1625361 L32.3677395,26.1625361 C33.0961535,26.1625361 33.6867327,25.5719569 33.6867327,24.8435429 C33.6867327,24.115129 33.0961535,23.5245498 32.3677395,23.5245498 Z" />
</g>
</svg>